# xmcd
#
# Track frame offsets:
#	150
#	17165
#	33375
#	47330
#	64370
#	81425
#	93907
#	108681
#	124566
#	141841
#	159205
#	173777
#	188907
#	206869
#	222632
#	237499
#	253989
#
# Disc length: 3580 seconds
#
# Revision: 0
# Processed by: cddbd v1.5.1PL2 Copyright (c) Steve Scherf et al.
# Submitted via: audiograbber 1.83.01
#
DISCID=fb0dfa11
DTITLE=Various Artist - Nu Country Traxx Vol. 22
DYEAR=2001
DGENRE=Country
TTITLE0=Kenny Rogers - Buy Me A Rose
TTITLE1=Faith Hill - If My Heart Had Wings
TTITLE2=John Michael Montgomery - That's What I Like About You
TTITLE3=Tim Rushlow - She Misses Him
TTITLE4=Alison Krauss - Maybe
TTITLE5=Kenny Rogers - There You Go Again
TTITLE6=Marshall Dyllon - Live It Up
TTITLE7=South 65 - The Most Beautiful Girl
TTITLE8=Chris Cagle - Laredo
TTITLE9=Rodney Crowell - I Walk The Line
TTITLE10=Jolie and The Wanted - Boom
TTITLE11=Brooks and Dunn - Ain't Nothin Bout You
TTITLE12=Sara Evans - I Could Not Ask For More
TTITLE13=Kourtney Kayle - Don't Let Me Down
TTITLE14=Billy Ray Cyrus - Burn Down The Trailer Park
TTITLE15=Montgomery Gentry - She Couldn't Change Me
TTITLE16=Morgan and Kershaw - He Drinks Tequila
EXTD=
EXTT0=
EXTT1=
EXTT2=
EXTT3=
EXTT4=
EXTT5=
EXTT6=
EXTT7=
EXTT8=
EXTT9=
EXTT10=
EXTT11=
EXTT12=
EXTT13=
EXTT14=
EXTT15=
EXTT16=
PLAYORDER=
